<svg width="276" height="75" viewBox="0 0 276 75" fill="none" xmlns="http://www.w3.org/2000/svg">
<path d="M57.32 19.44C55.6133 19.44 54.76 20.2933 54.76 22V25.52H65.64V22C65.64 20.2933 64.7867 19.44 63.08 19.44H57.32ZM75.56 45.36C67.3253 46.2133 59.8587 46.64 53.16 46.64C50.2587 46.64 47.9333 45.7653 46.184 44.016C44.4347 42.2667 43.56 39.9413 43.56 37.04V21.68C43.56 18.48 44.456 15.984 46.248 14.192C48.0827 12.3573 50.6 11.44 53.8 11.44H66.6C69.8 11.44 72.296 12.3573 74.088 14.192C75.9227 15.984 76.84 18.48 76.84 21.68V33.52H54.76V36.08C54.76 36.72 54.9733 37.2533 55.4 37.68C55.8267 38.1067 56.36 38.32 57 38.32C61.224 38.32 67.4107 38 75.56 37.36V45.36ZM106.255 46C102.116 46.4267 98.063 46.64 94.095 46.64C91.1937 46.64 88.8683 45.7653 87.119 44.016C85.3697 42.2667 84.495 39.9413 84.495 37.04V20.72H80.655V12.08H84.495L85.775 4.4H95.695V12.08H103.695V20.72H95.695V35.44C95.695 36.08 95.9083 36.6133 96.335 37.04C96.7617 37.4667 97.295 37.68 97.935 37.68H106.255V46Z" fill="#E63946"/>
<path d="M133.193 46C129.054 46.4267 125.001 46.64 121.033 46.64C118.131 46.64 115.806 45.7653 114.057 44.016C112.307 42.2667 111.433 39.9413 111.433 37.04V20.72H107.593V12.08H111.433L112.713 4.4H122.633V12.08H130.633V20.72H122.633V35.44C122.633 36.08 122.846 36.6133 123.273 37.04C123.699 37.4667 124.233 37.68 124.873 37.68H133.193V46ZM157.22 21.36C154.532 21.36 151.759 22 148.9 23.28V46H137.7V12.08H147.62L148.26 16.24C151.929 13.04 155.769 11.44 159.78 11.44H162.66V21.36H157.22ZM178.015 37.68C180.276 37.68 182.836 37.2533 185.695 36.4V32.56H176.415C175.775 32.56 175.242 32.7733 174.815 33.2C174.388 33.6267 174.175 34.16 174.175 34.8V35.44C174.175 36.08 174.388 36.6133 174.815 37.04C175.242 37.4667 175.775 37.68 176.415 37.68H178.015ZM166.175 12.72C173.983 11.8667 181.023 11.44 187.295 11.44C190.196 11.44 192.522 12.3147 194.271 14.064C196.02 15.8133 196.895 18.1387 196.895 21.04V46H186.975L186.335 42.8C184.33 44.1227 182.26 45.104 180.127 45.744C178.036 46.3413 176.266 46.64 174.815 46.64H172.575C169.674 46.64 167.348 45.7653 165.599 44.016C163.85 42.2667 162.975 39.9413 162.975 37.04V34.16C162.975 31.2587 163.85 28.9333 165.599 27.184C167.348 25.4347 169.674 24.56 172.575 24.56H185.695V22C185.695 21.36 185.482 20.8267 185.055 20.4C184.628 19.9733 184.095 19.76 183.455 19.76C180.682 19.76 177.61 19.888 174.239 20.144C170.911 20.4 168.223 20.592 166.175 20.72V12.72ZM232.718 45.36C224.739 46.2133 217.699 46.64 211.598 46.64C208.696 46.64 206.371 45.7653 204.622 44.016C202.872 42.2667 201.998 39.9413 201.998 37.04V22.32C201.998 19.12 202.894 16.624 204.686 14.832C206.52 12.9973 209.038 12.08 212.238 12.08H232.718V20.72H215.758C214.051 20.72 213.198 21.5733 213.198 23.28V35.76C213.198 36.4 213.411 36.9333 213.838 37.36C214.264 37.7867 214.798 38 215.438 38C219.278 38 225.038 37.68 232.718 37.04V45.36ZM249.025 32.56V46H237.825V1.2H249.025V23.92H254.145L261.185 12.08H273.025L263.425 28.4L273.025 46H261.185L253.825 32.56H249.025Z" fill="white"/>
<path d="M50.48 56.892C48.8744 57.036 47.5424 57.108 46.484 57.108C45.7784 57.108 45.26 56.9424 44.9288 56.6112C44.5976 56.28 44.432 55.7616 44.432 55.056V51.6C44.432 50.844 44.6012 50.2968 44.9396 49.9584C45.2852 49.6128 45.836 49.44 46.592 49.44H50.48V50.952H47.024C46.592 50.952 46.376 51.168 46.376 51.6V55.056C46.376 55.2216 46.4228 55.3548 46.5164 55.4556C46.6172 55.5492 46.7432 55.596 46.8944 55.596C47.0456 55.596 47.2112 55.596 47.3912 55.596C47.5712 55.5888 47.7584 55.5816 47.9528 55.5744C48.1472 55.5672 48.3416 55.56 48.536 55.5528C48.7376 55.5456 48.9932 55.5312 49.3028 55.5096C49.6196 55.488 50.012 55.4628 50.48 55.434V56.892ZM53.5053 55.596C53.8869 55.596 54.3189 55.524 54.8013 55.38V54.732H53.2353C53.1273 54.732 53.0373 54.768 52.9653 54.84C52.8933 54.912 52.8573 55.002 52.8573 55.11V55.218C52.8573 55.326 52.8933 55.416 52.9653 55.488C53.0373 55.56 53.1273 55.596 53.2353 55.596H53.5053ZM51.5073 51.384C52.8249 51.24 54.0129 51.168 55.0713 51.168C55.5609 51.168 55.9533 51.3156 56.2485 51.6108C56.5437 51.906 56.6913 52.2984 56.6913 52.788V57H55.0173L54.9093 56.46C54.5709 56.6832 54.2217 56.8488 53.8617 56.9568C53.5089 57.0576 53.2101 57.108 52.9653 57.108H52.5873C52.0977 57.108 51.7053 56.9604 51.4101 56.6652C51.1149 56.37 50.9673 55.9776 50.9673 55.488V55.002C50.9673 54.5124 51.1149 54.12 51.4101 53.8248C51.7053 53.5296 52.0977 53.382 52.5873 53.382H54.8013V52.95C54.8013 52.842 54.7653 52.752 54.6933 52.68C54.6213 52.608 54.5313 52.572 54.4233 52.572C53.9553 52.572 53.4369 52.5936 52.8681 52.6368C52.3065 52.68 51.8529 52.7124 51.5073 52.734V51.384ZM60.9543 52.842C60.5007 52.842 60.0327 52.95 59.5503 53.166V57H57.6603V51.276H59.3343L59.4423 51.978C60.0615 51.438 60.7095 51.168 61.3863 51.168H61.8723V52.842H60.9543ZM70.1858 49.44C70.9994 49.44 71.615 49.6524 72.0326 50.0772C72.4574 50.4948 72.6698 51.1104 72.6698 51.924V54.516C72.6698 55.3296 72.4574 55.9488 72.0326 56.3736C71.615 56.7912 70.9994 57 70.1858 57H65.9738V49.44H70.1858ZM70.7258 51.924C70.7258 51.276 70.4018 50.952 69.7538 50.952H67.9178V55.488H69.7538C70.4018 55.488 70.7258 55.164 70.7258 54.516V51.924ZM75.8528 52.518C75.5648 52.518 75.4208 52.662 75.4208 52.95V53.544H77.2568V52.95C77.2568 52.662 77.1128 52.518 76.8248 52.518H75.8528ZM78.9308 56.892C77.5412 57.036 76.2812 57.108 75.1508 57.108C74.6612 57.108 74.2688 56.9604 73.9736 56.6652C73.6784 56.37 73.5308 55.9776 73.5308 55.488V52.896C73.5308 52.356 73.682 51.9348 73.9844 51.6324C74.294 51.3228 74.7188 51.168 75.2588 51.168H77.4188C77.9588 51.168 78.38 51.3228 78.6824 51.6324C78.992 51.9348 79.1468 52.356 79.1468 52.896V54.894H75.4208V55.326C75.4208 55.434 75.4568 55.524 75.5288 55.596C75.6008 55.668 75.6908 55.704 75.7988 55.704C76.5116 55.704 77.5556 55.65 78.9308 55.542V56.892ZM84.1106 57C83.4122 57.072 82.7282 57.108 82.0586 57.108C81.569 57.108 81.1766 56.9604 80.8814 56.6652C80.5862 56.37 80.4386 55.9776 80.4386 55.488V52.734H79.7906V51.276H80.4386L80.6546 49.98H82.3286V51.276H83.6786V52.734H82.3286V55.218C82.3286 55.326 82.3646 55.416 82.4366 55.488C82.5086 55.56 82.5986 55.596 82.7066 55.596H84.1106V57ZM86.9798 52.518C86.6918 52.518 86.5478 52.662 86.5478 52.95V53.544H88.3838V52.95C88.3838 52.662 88.2398 52.518 87.9518 52.518H86.9798ZM90.0578 56.892C88.6682 57.036 87.4082 57.108 86.2778 57.108C85.7882 57.108 85.3958 56.9604 85.1006 56.6652C84.8054 56.37 84.6578 55.9776 84.6578 55.488V52.896C84.6578 52.356 84.809 51.9348 85.1114 51.6324C85.421 51.3228 85.8458 51.168 86.3858 51.168H88.5458C89.0858 51.168 89.507 51.3228 89.8094 51.6324C90.119 51.9348 90.2738 52.356 90.2738 52.896V54.894H86.5478V55.326C86.5478 55.434 86.5838 55.524 86.6558 55.596C86.7278 55.668 86.8178 55.704 86.9258 55.704C87.6386 55.704 88.6826 55.65 90.0578 55.542V56.892ZM96.3176 56.892C94.9712 57.036 93.7832 57.108 92.7536 57.108C92.264 57.108 91.8716 56.9604 91.5764 56.6652C91.2812 56.37 91.1336 55.9776 91.1336 55.488V53.004C91.1336 52.464 91.2848 52.0428 91.5872 51.7404C91.8968 51.4308 92.3216 51.276 92.8616 51.276H96.3176V52.734H93.4556C93.1676 52.734 93.0236 52.878 93.0236 53.166V55.272C93.0236 55.38 93.0596 55.47 93.1316 55.542C93.2036 55.614 93.2936 55.65 93.4016 55.65C94.0496 55.65 95.0216 55.596 96.3176 55.488V56.892ZM101.175 57C100.477 57.072 99.7931 57.108 99.1235 57.108C98.6339 57.108 98.2415 56.9604 97.9463 56.6652C97.6511 56.37 97.5035 55.9776 97.5035 55.488V52.734H96.8555V51.276H97.5035L97.7195 49.98H99.3935V51.276H100.743V52.734H99.3935V55.218C99.3935 55.326 99.4295 55.416 99.5015 55.488C99.5735 55.56 99.6635 55.596 99.7715 55.596H101.175V57ZM104.101 51.492V57H102.211V52.95H101.401V51.492H104.101ZM102.211 49.332H104.101V50.844H102.211V49.332ZM111.017 55.38C111.017 55.92 110.862 56.3448 110.552 56.6544C110.25 56.9568 109.829 57.108 109.289 57.108H106.805C106.265 57.108 105.84 56.9568 105.53 56.6544C105.228 56.3448 105.077 55.92 105.077 55.38V52.896C105.077 52.356 105.228 51.9348 105.53 51.6324C105.84 51.3228 106.265 51.168 106.805 51.168H109.289C109.829 51.168 110.25 51.3228 110.552 51.6324C110.862 51.9348 111.017 52.356 111.017 52.896V55.38ZM109.127 53.058C109.127 52.77 108.983 52.626 108.695 52.626H107.399C107.111 52.626 106.967 52.77 106.967 53.058V55.218C106.967 55.506 107.111 55.65 107.399 55.65H108.695C108.983 55.65 109.127 55.506 109.127 55.218V53.058ZM115.173 52.734C114.792 52.734 114.36 52.806 113.877 52.95V57H111.987V51.276H113.661L113.769 51.816C114.108 51.5928 114.453 51.4308 114.806 51.33C115.166 51.222 115.468 51.168 115.713 51.168H116.199C116.689 51.168 117.081 51.3156 117.376 51.6108C117.672 51.906 117.819 52.2984 117.819 52.788V57H115.929V53.112C115.929 53.004 115.893 52.914 115.821 52.842C115.749 52.77 115.659 52.734 115.551 52.734H115.173ZM128.292 56.892C126.657 57.036 125.181 57.108 123.864 57.108C123.158 57.108 122.64 56.9424 122.309 56.6112C121.977 56.28 121.812 55.7616 121.812 55.056C121.812 54.5088 121.949 54.0552 122.222 53.6952C122.438 53.4072 122.733 53.2128 123.108 53.112C122.784 53.004 122.521 52.8168 122.319 52.5504C122.125 52.2768 122.028 51.924 122.028 51.492V51.384C122.028 50.7288 122.193 50.2428 122.525 49.926C122.856 49.602 123.374 49.44 124.08 49.44H127.536V50.952H124.62C124.188 50.952 123.972 51.168 123.972 51.6V51.924C123.972 52.356 124.188 52.572 124.62 52.572H126.348L126.51 51.708H128.292V52.572H129.156V54.084H128.292V56.892ZM124.296 55.596C125.088 55.596 125.772 55.578 126.348 55.542V54.084H124.404C123.972 54.084 123.756 54.3 123.756 54.732V55.056C123.756 55.2216 123.803 55.3548 123.896 55.4556C123.997 55.5492 124.13 55.596 124.296 55.596ZM135.091 55.488H139.033V57H133.147V49.44H135.091V55.488ZM142.059 51.492V57H140.169V52.95H139.359V51.492H142.059ZM140.169 49.332H142.059V50.844H140.169V49.332ZM148.219 56.892C146.872 57.036 145.684 57.108 144.655 57.108C144.165 57.108 143.773 56.9604 143.478 56.6652C143.182 56.37 143.035 55.9776 143.035 55.488V53.004C143.035 52.464 143.186 52.0428 143.488 51.7404C143.798 51.4308 144.223 51.276 144.763 51.276H148.219V52.734H145.357C145.069 52.734 144.925 52.878 144.925 53.166V55.272C144.925 55.38 144.961 55.47 145.033 55.542C145.105 55.614 145.195 55.65 145.303 55.65C145.951 55.65 146.923 55.596 148.219 55.488V56.892ZM151.295 52.518C151.007 52.518 150.863 52.662 150.863 52.95V53.544H152.699V52.95C152.699 52.662 152.555 52.518 152.267 52.518H151.295ZM154.373 56.892C152.983 57.036 151.723 57.108 150.593 57.108C150.103 57.108 149.711 56.9604 149.415 56.6652C149.12 56.37 148.973 55.9776 148.973 55.488V52.896C148.973 52.356 149.124 51.9348 149.426 51.6324C149.736 51.3228 150.161 51.168 150.701 51.168H152.861C153.401 51.168 153.822 51.3228 154.124 51.6324C154.434 51.9348 154.589 52.356 154.589 52.896V54.894H150.863V55.326C150.863 55.434 150.899 55.524 150.971 55.596C151.043 55.668 151.133 55.704 151.241 55.704C151.953 55.704 152.997 55.65 154.373 55.542V56.892ZM158.742 52.734C158.361 52.734 157.929 52.806 157.446 52.95V57H155.556V51.276H157.23L157.338 51.816C157.677 51.5928 158.022 51.4308 158.375 51.33C158.735 51.222 159.038 51.168 159.282 51.168H159.768C160.258 51.168 160.65 51.3156 160.946 51.6108C161.241 51.906 161.388 52.2984 161.388 52.788V57H159.498V53.112C159.498 53.004 159.462 52.914 159.39 52.842C159.318 52.77 159.228 52.734 159.12 52.734H158.742ZM162.143 55.488C163.605 55.596 164.757 55.65 165.599 55.65C165.707 55.65 165.797 55.614 165.869 55.542C165.941 55.47 165.977 55.38 165.977 55.272V54.894H163.655C163.166 54.894 162.773 54.7464 162.478 54.4512C162.183 54.156 162.035 53.7636 162.035 53.274V52.896C162.035 52.4064 162.183 52.014 162.478 51.7188C162.773 51.4236 163.166 51.276 163.655 51.276H167.327V52.68H164.303C164.195 52.68 164.105 52.716 164.033 52.788C163.961 52.86 163.925 52.95 163.925 53.058C163.925 53.166 163.961 53.256 164.033 53.328C164.105 53.4 164.195 53.436 164.303 53.436H166.247C166.737 53.436 167.129 53.5836 167.424 53.8788C167.72 54.174 167.867 54.5664 167.867 55.056V55.488C167.867 55.9776 167.72 56.37 167.424 56.6652C167.129 56.9604 166.737 57.108 166.247 57.108C164.973 57.108 163.605 57.036 162.143 56.892V55.488ZM170.838 52.518C170.55 52.518 170.406 52.662 170.406 52.95V53.544H172.242V52.95C172.242 52.662 172.098 52.518 171.81 52.518H170.838ZM173.916 56.892C172.526 57.036 171.266 57.108 170.136 57.108C169.646 57.108 169.254 56.9604 168.959 56.6652C168.664 56.37 168.516 55.9776 168.516 55.488V52.896C168.516 52.356 168.667 51.9348 168.97 51.6324C169.279 51.3228 169.704 51.168 170.244 51.168H172.404C172.944 51.168 173.365 51.3228 173.668 51.6324C173.977 51.9348 174.132 52.356 174.132 52.896V54.894H170.406V55.326C170.406 55.434 170.442 55.524 170.514 55.596C170.586 55.668 170.676 55.704 170.784 55.704C171.497 55.704 172.541 55.65 173.916 55.542V56.892ZM178.446 49.44H182.982C183.738 49.44 184.285 49.6128 184.623 49.9584C184.969 50.2968 185.142 50.844 185.142 51.6V52.68C185.142 53.436 184.969 53.9868 184.623 54.3324C184.285 54.6708 183.738 54.84 182.982 54.84H180.39V57H178.446V49.44ZM183.198 51.6C183.198 51.168 182.982 50.952 182.55 50.952H180.39V53.328H182.55C182.982 53.328 183.198 53.112 183.198 52.68V51.6ZM188.921 57C188.439 57.072 187.978 57.108 187.539 57.108C187.107 57.108 186.743 56.9604 186.448 56.6652C186.153 56.37 186.005 55.9776 186.005 55.488V49.44H187.895V55.218C187.895 55.326 187.931 55.416 188.003 55.488C188.075 55.56 188.165 55.596 188.273 55.596H188.921V57ZM191.944 55.596C192.325 55.596 192.757 55.524 193.24 55.38V54.732H191.674C191.566 54.732 191.476 54.768 191.404 54.84C191.332 54.912 191.296 55.002 191.296 55.11V55.218C191.296 55.326 191.332 55.416 191.404 55.488C191.476 55.56 191.566 55.596 191.674 55.596H191.944ZM189.946 51.384C191.263 51.24 192.451 51.168 193.51 51.168C193.999 51.168 194.392 51.3156 194.687 51.6108C194.982 51.906 195.13 52.2984 195.13 52.788V57H193.456L193.348 56.46C193.009 56.6832 192.66 56.8488 192.3 56.9568C191.947 57.0576 191.648 57.108 191.404 57.108H191.026C190.536 57.108 190.144 56.9604 189.848 56.6652C189.553 56.37 189.406 55.9776 189.406 55.488V55.002C189.406 54.5124 189.553 54.12 189.848 53.8248C190.144 53.5296 190.536 53.382 191.026 53.382H193.24V52.95C193.24 52.842 193.204 52.752 193.132 52.68C193.06 52.608 192.97 52.572 192.862 52.572C192.394 52.572 191.875 52.5936 191.306 52.6368C190.745 52.68 190.291 52.7124 189.946 52.734V51.384ZM200.095 57C199.396 57.072 198.712 57.108 198.043 57.108C197.553 57.108 197.161 56.9604 196.865 56.6652C196.57 56.37 196.423 55.9776 196.423 55.488V52.734H195.775V51.276H196.423L196.639 49.98H198.313V51.276H199.663V52.734H198.313V55.218C198.313 55.326 198.349 55.416 198.421 55.488C198.493 55.56 198.583 55.596 198.691 55.596H200.095V57ZM202.964 52.518C202.676 52.518 202.532 52.662 202.532 52.95V53.544H204.368V52.95C204.368 52.662 204.224 52.518 203.936 52.518H202.964ZM206.042 56.892C204.652 57.036 203.392 57.108 202.262 57.108C201.772 57.108 201.38 56.9604 201.085 56.6652C200.789 56.37 200.642 55.9776 200.642 55.488V52.896C200.642 52.356 200.793 51.9348 201.095 51.6324C201.405 51.3228 201.83 51.168 202.37 51.168H204.53C205.07 51.168 205.491 51.3228 205.793 51.6324C206.103 51.9348 206.258 52.356 206.258 52.896V54.894H202.532V55.326C202.532 55.434 202.568 55.524 202.64 55.596C202.712 55.668 202.802 55.704 202.91 55.704C203.623 55.704 204.667 55.65 206.042 55.542V56.892ZM210.571 49.44H215.107C215.863 49.44 216.411 49.6128 216.749 49.9584C217.095 50.2968 217.267 50.844 217.267 51.6V52.572C217.267 53.1696 217.167 53.634 216.965 53.9652C216.771 54.2964 216.457 54.516 216.025 54.624L217.375 57H215.269L214.027 54.732H212.515V57H210.571V49.44ZM215.323 51.6C215.323 51.168 215.107 50.952 214.675 50.952H212.515V53.22H214.675C215.107 53.22 215.323 53.004 215.323 52.572V51.6ZM220.45 52.518C220.162 52.518 220.018 52.662 220.018 52.95V53.544H221.854V52.95C221.854 52.662 221.71 52.518 221.422 52.518H220.45ZM223.528 56.892C222.139 57.036 220.879 57.108 219.748 57.108C219.259 57.108 218.866 56.9604 218.571 56.6652C218.276 56.37 218.128 55.9776 218.128 55.488V52.896C218.128 52.356 218.28 51.9348 218.582 51.6324C218.892 51.3228 219.316 51.168 219.856 51.168H222.016C222.556 51.168 222.978 51.3228 223.28 51.6324C223.59 51.9348 223.744 52.356 223.744 52.896V54.894H220.018V55.326C220.018 55.434 220.054 55.524 220.126 55.596C220.198 55.668 220.288 55.704 220.396 55.704C221.109 55.704 222.153 55.65 223.528 55.542V56.892ZM229.788 56.892C228.442 57.036 227.254 57.108 226.224 57.108C225.735 57.108 225.342 56.9604 225.047 56.6652C224.752 56.37 224.604 55.9776 224.604 55.488V53.004C224.604 52.464 224.755 52.0428 225.058 51.7404C225.367 51.4308 225.792 51.276 226.332 51.276H229.788V52.734H226.926C226.638 52.734 226.494 52.878 226.494 53.166V55.272C226.494 55.38 226.53 55.47 226.602 55.542C226.674 55.614 226.764 55.65 226.872 55.65C227.52 55.65 228.492 55.596 229.788 55.488V56.892ZM236.482 55.38C236.482 55.92 236.327 56.3448 236.018 56.6544C235.715 56.9568 235.294 57.108 234.754 57.108H232.27C231.73 57.108 231.305 56.9568 230.996 56.6544C230.693 56.3448 230.542 55.92 230.542 55.38V52.896C230.542 52.356 230.693 51.9348 230.996 51.6324C231.305 51.3228 231.73 51.168 232.27 51.168H234.754C235.294 51.168 235.715 51.3228 236.018 51.6324C236.327 51.9348 236.482 52.356 236.482 52.896V55.38ZM234.592 53.058C234.592 52.77 234.448 52.626 234.16 52.626H232.864C232.576 52.626 232.432 52.77 232.432 53.058V55.218C232.432 55.506 232.576 55.65 232.864 55.65H234.16C234.448 55.65 234.592 55.506 234.592 55.218V53.058ZM241.179 56.568C240.48 56.712 239.868 56.784 239.343 56.784H238.965C238.475 56.784 238.083 56.6364 237.788 56.3412C237.492 56.046 237.345 55.6536 237.345 55.164V53.004C237.345 52.464 237.496 52.0428 237.798 51.7404C238.108 51.4308 238.533 51.276 239.073 51.276H243.069V57.324C243.069 57.8136 242.921 58.206 242.626 58.5012C242.331 58.7964 241.938 58.944 241.449 58.944C240.318 58.944 239.058 58.872 237.669 58.728V57.324C239.044 57.432 240.088 57.486 240.801 57.486C240.909 57.486 240.999 57.45 241.071 57.378C241.143 57.306 241.179 57.216 241.179 57.108V56.568ZM239.883 55.326C240.336 55.326 240.768 55.29 241.179 55.218V52.734H239.667C239.379 52.734 239.235 52.878 239.235 53.166V54.948C239.235 55.056 239.271 55.146 239.343 55.218C239.415 55.29 239.505 55.326 239.613 55.326H239.883ZM247.336 52.734C246.955 52.734 246.523 52.806 246.04 52.95V57H244.15V51.276H245.824L245.932 51.816C246.271 51.5928 246.616 51.4308 246.969 51.33C247.329 51.222 247.631 51.168 247.876 51.168H248.362C248.852 51.168 249.244 51.3156 249.539 51.6108C249.835 51.906 249.982 52.2984 249.982 52.788V57H248.092V53.112C248.092 53.004 248.056 52.914 247.984 52.842C247.912 52.77 247.822 52.734 247.714 52.734H247.336ZM253.329 51.492V57H251.439V52.95H250.629V51.492H253.329ZM251.439 49.332H253.329V50.844H251.439V49.332ZM258.408 57C257.71 57.072 257.026 57.108 256.356 57.108C255.867 57.108 255.474 56.9604 255.179 56.6652C254.884 56.37 254.736 55.9776 254.736 55.488V52.734H254.088V51.276H254.736L254.952 49.98H256.626V51.276H257.976V52.734H256.626V55.218C256.626 55.326 256.662 55.416 256.734 55.488C256.806 55.56 256.896 55.596 257.004 55.596H258.408V57ZM261.334 51.492V57H259.444V52.95H258.634V51.492H261.334ZM259.444 49.332H261.334V50.844H259.444V49.332ZM268.249 55.38C268.249 55.92 268.095 56.3448 267.785 56.6544C267.483 56.9568 267.061 57.108 266.521 57.108H264.037C263.497 57.108 263.073 56.9568 262.763 56.6544C262.461 56.3448 262.309 55.92 262.309 55.38V52.896C262.309 52.356 262.461 51.9348 262.763 51.6324C263.073 51.3228 263.497 51.168 264.037 51.168H266.521C267.061 51.168 267.483 51.3228 267.785 51.6324C268.095 51.9348 268.249 52.356 268.249 52.896V55.38ZM266.359 53.058C266.359 52.77 266.215 52.626 265.927 52.626H264.631C264.343 52.626 264.199 52.77 264.199 53.058V55.218C264.199 55.506 264.343 55.65 264.631 55.65H265.927C266.215 55.65 266.359 55.506 266.359 55.218V53.058ZM272.406 52.734C272.024 52.734 271.592 52.806 271.11 52.95V57H269.22V51.276H270.894L271.002 51.816C271.34 51.5928 271.686 51.4308 272.039 51.33C272.399 51.222 272.701 51.168 272.946 51.168H273.432C273.922 51.168 274.314 51.3156 274.609 51.6108C274.904 51.906 275.052 52.2984 275.052 52.788V57H273.162V53.112C273.162 53.004 273.126 52.914 273.054 52.842C272.982 52.77 272.892 52.734 272.784 52.734H272.406Z" fill="white"/>
<path d="M38.4 51.72C38.4 57.992 36.928 62.6 33.984 65.544C31.04 68.488 26.496 69.96 20.352 69.96C14.272 69.96 7.808 69.64 0.96 69V56.04C5.952 56.36 11.072 56.52 16.32 56.52C17.792 56.52 18.944 56.104 19.776 55.272C20.672 54.376 21.12 53.192 21.12 51.72V15.24H8.64V1.8H38.4V51.72Z" fill="#E63946"/>
</svg>
